<svg width="76" height="76" viewBox="0 0 76 76" fill="none" xmlns="http://www.w3.org/2000/svg">
<g clip-path="url(#clip0_2_4)">
<path d="M35.8999 11.3H40.2999C40.7999 11.3 41.1999 10.9 41.1999 10.4C41.1999 9.89999 40.7999 9.49999 40.2999 9.49999H35.8999V11.3ZM35.8999 15.5H40.3999C40.9999 15.5 41.3999 15.1 41.3999 14.5C41.3999 13.9 40.9999 13.5 40.3999 13.5H35.8999V15.5ZM42.9999 12.3C43.5999 12.9 43.9999 13.7 43.9999 14.6C43.9999 16.4 42.5999 17.8 40.7999 17.8H33.4999V7.29999H40.6999C42.3999 7.29999 43.7999 8.69999 43.7999 10.4C43.6999 11.1 43.3999 11.8 42.9999 12.3ZM44.6999 30.3H41.9999L41.1999 28.5H35.2999L34.4999 30.3H31.7999L36.9999 19.8H39.3999L44.6999 30.3ZM38.1999 22.5L36.3999 26.3H39.9999L38.1999 22.5ZM41.7999 32.6H44.7999L39.4999 39.4V43.1H36.9999V39.4L31.6999 32.6H34.6999L38.2999 37.4L41.7999 32.6ZM55.6999 32.6V34.9H48.6999V36.7H55.4999V39H48.6999V41H55.6999V43.3H46.1999V32.6H55.6999ZM63.3999 39.1H61.4999V43.1H58.9999V32.6H65.3999C67.1999 32.6 68.5999 34.1 68.5999 35.9C68.5999 37.4 67.5999 38.6 66.2999 39L69.3999 43.1H66.3999L63.3999 39.1ZM65.1999 34.8H61.5999V36.8H65.1999C65.7999 36.8 66.1999 36.3 66.1999 35.8C66.1999 35.3 65.6999 34.8 65.1999 34.8ZM32.7999 43.1H30.0999L29.2999 41.3H23.3999L22.5999 43.1H19.8999L25.1999 32.6H27.5999L32.7999 43.1ZM26.2999 35.3L24.4999 39.1H28.1999L26.2999 35.3ZM10.3999 36.6H14.7999C15.2999 36.6 15.6999 36.2 15.6999 35.7C15.6999 35.2 15.2999 34.8 14.7999 34.8H10.3999V36.6ZM10.3999 40.8H14.8999C15.4999 40.8 15.8999 40.4 15.8999 39.8C15.8999 39.2 15.4999 38.8 14.8999 38.8H10.3999V40.8ZM17.4999 37.6C18.0999 38.2 18.4999 39 18.4999 39.9C18.4999 41.7 17.0999 43.1 15.2999 43.1H7.8999V32.6H15.0999C16.7999 32.6 18.1999 34 18.1999 35.7C18.1999 36.4 17.8999 37.1 17.4999 37.6ZM42.9999 45.3V47.6H35.9999V49.4H42.7999V51.7H35.9999V53.7H42.9999V56H33.4999V45.3H42.9999ZM41.1999 61.6C41.1999 61 40.7999 60.6 40.1999 60.6H35.8999V62.6H40.1999C40.7999 62.6 41.1999 62.2 41.1999 61.6ZM33.3999 68.9V58.4H40.3999C42.1999 58.4 43.5999 59.9 43.5999 61.7C43.5999 63.1 42.7999 64.2 41.5999 64.7L44.7999 68.9H41.7999L38.7999 64.9H35.8999V68.9H33.3999Z" fill="#F7F8EF"/>
<path d="M76.0999 35.6C74.8999 15.8 58.3999 0 38.1999 0C17.9999 0 1.49993 15.8 0.299927 35.6C0.299927 36.4 0.399927 37.2 0.499927 38C1.29993 44.6 3.79993 50.7 7.59993 55.8C14.4999 65.2 25.5999 71.3 38.1999 71.3C20.5999 71.3 6.19993 57.6 4.99993 40.4C4.89993 39.6 4.89993 38.8 4.89993 38C4.89993 37.2 4.89993 36.4 4.99993 35.6C6.19993 18.4 20.5999 4.7 38.1999 4.7C50.7999 4.7 61.8999 10.8 68.7999 20.2C72.5999 25.3 75.0999 31.4 75.8999 38C75.9999 38.8 76.0999 39.6 76.0999 40.3C76.0999 39.5 76.1999 38.7 76.1999 37.9C76.1999 37.2 76.1999 36.4 76.0999 35.6Z" fill="#89D329"/>
<path d="M0.299951 40.4C1.49995 60.2 18 76 38.2 76C58.4 76 74.9 60.2 76.1 40.4C76.1 39.6 76 38.8 75.9 38C75.1 31.4 72.6 25.3 68.8 20.2C61.9 10.8 50.7999 4.70001 38.2 4.70001C55.7999 4.70001 70.2 18.4 71.4 35.6C71.5 36.4 71.5 37.2 71.5 38C71.5 38.8 71.5 39.6 71.4 40.4C70.2 57.7 55.7999 71.3 38.2 71.3C25.6 71.3 14.5 65.2 7.59995 55.8C3.79995 50.7 1.29995 44.6 0.499951 38C0.399951 37.2 0.299951 36.4 0.299951 35.7C0.299951 36.5 0.199951 37.3 0.199951 38.1C0.199951 38.8 0.199951 39.6 0.299951 40.4Z" fill="#00BCFF"/>
</g>
<defs>
<clipPath id="clip0_2_4">
<rect width="76" height="76" fill="white"/>
</clipPath>
</defs>
</svg>
